<svg height="1710" width="720" xmlns="http://www.w3.org/2000/svg">
<rect height="1710" fill="#555" width="720"></rect>
<text fill="#7f7" font-family="Courier New" font-size="12" xml:space="preserve">
<tspan x="10" y="26">20 megabytes installed</tspan>
<tspan x="10" y="42"></tspan>
<tspan x="10" y="58">node_modules</tspan>
<tspan x="10" y="74">└─┬ steam-tradeoffers@3.1.0 </tspan>
<tspan x="10" y="90">  ├─┬ cheerio@0.20.0 </tspan>
<tspan x="10" y="106">  │ ├─┬ css-select@1.2.0 </tspan>
<tspan x="10" y="122">  │ │ ├── boolbase@1.0.0 </tspan>
<tspan x="10" y="138">  │ │ ├── css-what@2.1.0 </tspan>
<tspan x="10" y="154">  │ │ ├── domutils@1.5.1 </tspan>
<tspan x="10" y="170">  │ │ └── nth-check@1.0.1 </tspan>
<tspan x="10" y="186">  │ ├─┬ dom-serializer@0.1.0 </tspan>
<tspan x="10" y="202">  │ │ └── domelementtype@1.1.3 </tspan>
<tspan x="10" y="218">  │ ├── entities@1.1.1 </tspan>
<tspan x="10" y="234">  │ ├─┬ htmlparser2@3.8.3 </tspan>
<tspan x="10" y="250">  │ │ ├── domelementtype@1.3.0 </tspan>
<tspan x="10" y="266">  │ │ ├── domhandler@2.3.0 </tspan>
<tspan x="10" y="282">  │ │ ├── entities@1.0.0 </tspan>
<tspan x="10" y="298">  │ │ └─┬ readable-stream@1.1.14 </tspan>
<tspan x="10" y="314">  │ │   ├── core-util-is@1.0.2 </tspan>
<tspan x="10" y="330">  │ │   ├── inherits@2.0.3 </tspan>
<tspan x="10" y="346">  │ │   ├── isarray@0.0.1 </tspan>
<tspan x="10" y="362">  │ │   └── string_decoder@0.10.31 </tspan>
<tspan x="10" y="378">  │ ├─┬ jsdom@7.2.2 </tspan>
<tspan x="10" y="394">  │ │ ├── abab@1.0.3 </tspan>
<tspan x="10" y="410">  │ │ ├── acorn@2.7.0 </tspan>
<tspan x="10" y="426">  │ │ ├── acorn-globals@1.0.9 </tspan>
<tspan x="10" y="442">  │ │ ├── cssom@0.3.2 </tspan>
<tspan x="10" y="458">  │ │ ├── cssstyle@0.2.37 </tspan>
<tspan x="10" y="474">  │ │ ├─┬ escodegen@1.8.1 </tspan>
<tspan x="10" y="490">  │ │ │ ├── esprima@2.7.3 </tspan>
<tspan x="10" y="506">  │ │ │ ├── estraverse@1.9.3 </tspan>
<tspan x="10" y="522">  │ │ │ ├── esutils@2.0.2 </tspan>
<tspan x="10" y="538">  │ │ │ ├─┬ optionator@0.8.2 </tspan>
<tspan x="10" y="554">  │ │ │ │ ├── deep-is@0.1.3 </tspan>
<tspan x="10" y="570">  │ │ │ │ ├── fast-levenshtein@2.0.6 </tspan>
<tspan x="10" y="586">  │ │ │ │ ├── levn@0.3.0 </tspan>
<tspan x="10" y="602">  │ │ │ │ ├── prelude-ls@1.1.2 </tspan>
<tspan x="10" y="618">  │ │ │ │ ├── type-check@0.3.2 </tspan>
<tspan x="10" y="634">  │ │ │ │ └── wordwrap@1.0.0 </tspan>
<tspan x="10" y="650">  │ │ │ └─┬ source-map@0.2.0 </tspan>
<tspan x="10" y="666">  │ │ │   └── amdefine@1.0.1 </tspan>
<tspan x="10" y="682">  │ │ ├── nwmatcher@1.3.9 </tspan>
<tspan x="10" y="698">  │ │ ├── parse5@1.5.1 </tspan>
<tspan x="10" y="714">  │ │ ├── sax@1.2.2 </tspan>
<tspan x="10" y="730">  │ │ ├── symbol-tree@3.2.2 </tspan>
<tspan x="10" y="746">  │ │ ├── webidl-conversions@2.0.1 </tspan>
<tspan x="10" y="762">  │ │ ├─┬ whatwg-url-compat@0.6.5 </tspan>
<tspan x="10" y="778">  │ │ │ └── tr46@0.0.3 </tspan>
<tspan x="10" y="794">  │ │ └── xml-name-validator@2.0.1 </tspan>
<tspan x="10" y="810">  │ └── lodash@4.17.4 </tspan>
<tspan x="10" y="826">  ├── long@3.2.0 </tspan>
<tspan x="10" y="842">  └─┬ request@2.81.0 </tspan>
<tspan x="10" y="858">    ├── aws-sign2@0.6.0 </tspan>
<tspan x="10" y="874">    ├── aws4@1.6.0 </tspan>
<tspan x="10" y="890">    ├── caseless@0.12.0 </tspan>
<tspan x="10" y="906">    ├─┬ combined-stream@1.0.5 </tspan>
<tspan x="10" y="922">    │ └── delayed-stream@1.0.0 </tspan>
<tspan x="10" y="938">    ├── extend@3.0.0 </tspan>
<tspan x="10" y="954">    ├── forever-agent@0.6.1 </tspan>
<tspan x="10" y="970">    ├─┬ form-data@2.1.4 </tspan>
<tspan x="10" y="986">    │ └── asynckit@0.4.0 </tspan>
<tspan x="10" y="1002">    ├─┬ har-validator@4.2.1 </tspan>
<tspan x="10" y="1018">    │ ├─┬ ajv@4.11.7 </tspan>
<tspan x="10" y="1034">    │ │ ├── co@4.6.0 </tspan>
<tspan x="10" y="1050">    │ │ └─┬ json-stable-stringify@1.0.1 </tspan>
<tspan x="10" y="1066">    │ │   └── jsonify@0.0.0 </tspan>
<tspan x="10" y="1082">    │ └── har-schema@1.0.5 </tspan>
<tspan x="10" y="1098">    ├─┬ hawk@3.1.3 </tspan>
<tspan x="10" y="1114">    │ ├── boom@2.10.1 </tspan>
<tspan x="10" y="1130">    │ ├── cryptiles@2.0.5 </tspan>
<tspan x="10" y="1146">    │ ├── hoek@2.16.3 </tspan>
<tspan x="10" y="1162">    │ └── sntp@1.0.9 </tspan>
<tspan x="10" y="1178">    ├─┬ http-signature@1.1.1 </tspan>
<tspan x="10" y="1194">    │ ├── assert-plus@0.2.0 </tspan>
<tspan x="10" y="1210">    │ ├─┬ jsprim@1.4.0 </tspan>
<tspan x="10" y="1226">    │ │ ├── assert-plus@1.0.0 </tspan>
<tspan x="10" y="1242">    │ │ ├── extsprintf@1.0.2 </tspan>
<tspan x="10" y="1258">    │ │ ├── json-schema@0.2.3 </tspan>
<tspan x="10" y="1274">    │ │ └── verror@1.3.6 </tspan>
<tspan x="10" y="1290">    │ └─┬ sshpk@1.13.0 </tspan>
<tspan x="10" y="1306">    │   ├── asn1@0.2.3 </tspan>
<tspan x="10" y="1322">    │   ├── assert-plus@1.0.0 </tspan>
<tspan x="10" y="1338">    │   ├── bcrypt-pbkdf@1.0.1 </tspan>
<tspan x="10" y="1354">    │   ├─┬ dashdash@1.14.1 </tspan>
<tspan x="10" y="1370">    │   │ └── assert-plus@1.0.0 </tspan>
<tspan x="10" y="1386">    │   ├── ecc-jsbn@0.1.1 </tspan>
<tspan x="10" y="1402">    │   ├─┬ getpass@0.1.6 </tspan>
<tspan x="10" y="1418">    │   │ └── assert-plus@1.0.0 </tspan>
<tspan x="10" y="1434">    │   ├── jodid25519@1.0.2 </tspan>
<tspan x="10" y="1450">    │   ├── jsbn@0.1.1 </tspan>
<tspan x="10" y="1466">    │   └── tweetnacl@0.14.5 </tspan>
<tspan x="10" y="1482">    ├── is-typedarray@1.0.0 </tspan>
<tspan x="10" y="1498">    ├── isstream@0.1.2 </tspan>
<tspan x="10" y="1514">    ├── json-stringify-safe@5.0.1 </tspan>
<tspan x="10" y="1530">    ├─┬ mime-types@2.1.15 </tspan>
<tspan x="10" y="1546">    │ └── mime-db@1.27.0 </tspan>
<tspan x="10" y="1562">    ├── oauth-sign@0.8.2 </tspan>
<tspan x="10" y="1578">    ├── performance-now@0.2.0 </tspan>
<tspan x="10" y="1594">    ├── qs@6.4.0 </tspan>
<tspan x="10" y="1610">    ├── safe-buffer@5.0.1 </tspan>
<tspan x="10" y="1626">    ├── stringstream@0.0.5 </tspan>
<tspan x="10" y="1642">    ├─┬ tough-cookie@2.3.2 </tspan>
<tspan x="10" y="1658">    │ └── punycode@1.4.1 </tspan>
<tspan x="10" y="1674">    ├── tunnel-agent@0.6.0 </tspan>
<tspan x="10" y="1690">    └── uuid@3.0.1</tspan>
</text>
</svg>
